<svg xmlns="http://www.w3.org/2000/svg" xmlns:xlink="http://www.w3.org/1999/xlink" id="a96792b7-ce28-4ca3-9767-4e065ef4820f" x="0" y="0" version="1.1" viewBox="0 0 18 18" xml:space="preserve" style="enable-background:new 0 0 18 18"><style type="text/css">.st0{fill:url(#SVGID_1_)}.st1{fill:#e8e8e8}.st2{fill:#50e6ff}.st3{fill:#198ab3}</style><title>Icon-databases-130</title><linearGradient id="SVGID_1_" x1="2.59" x2="15.41" y1="9.84" y2="9.84" gradientTransform="matrix(1 0 0 -1 0 20)" gradientUnits="userSpaceOnUse"><stop offset="0" style="stop-color:#005ba1"/><stop offset=".07" style="stop-color:#0060a9"/><stop offset=".36" style="stop-color:#0071c8"/><stop offset=".52" style="stop-color:#0078d4"/><stop offset=".64" style="stop-color:#0074cd"/><stop offset=".82" style="stop-color:#006abb"/><stop offset="1" style="stop-color:#005ba1"/></linearGradient><path d="M9,5.1c-3.5,0-6.4-1-6.4-2.3v12.4c0,1.3,2.8,2.3,6.3,2.3H9c3.5,0,6.4-1,6.4-2.3V2.8C15.4,4.1,12.5,5.1,9,5.1z" class="st0"/><path d="M15.4,2.8c0,1.3-2.9,2.3-6.4,2.3s-6.4-1-6.4-2.3S5.5,0.5,9,0.5S15.4,1.5,15.4,2.8" class="st1"/><path d="M13.9,2.6c0,0.8-2.2,1.5-4.9,1.5S4.1,3.5,4.1,2.6S6.3,1.2,9,1.2S13.9,1.8,13.9,2.6" class="st2"/><path d="M9,3C7.7,3,6.4,3.2,5.1,3.6C6.4,4,7.7,4.2,9,4.1c1.3,0,2.6-0.2,3.9-0.6C11.6,3.1,10.3,3,9,3z" class="st3"/></svg>