<svg xmlns="http://www.w3.org/2000/svg" viewBox="0 0 16 16"><style type="text/css">.icon-canvas-transparent{opacity:0;fill:#f6f6f6}.icon-vs-out{fill:#f6f6f6}.icon-vs-blue{fill:#1ba1e2}.icon-white{fill:#fff}</style><path id="canvas" d="M16 16h-16v-16h16v16z" class="icon-canvas-transparent"/><path id="outline" d="M0 8c0-4.418 3.582-8 8-8s8 3.582 8 8-3.582 8-8 8-8-3.582-8-8z" class="icon-vs-out"/><path id="iconBg" d="M8 1c-3.865 0-7 3.135-7 7s3.135 7 7 7 7-3.135 7-7-3.135-7-7-7zm1 12h-2v-7h2v7zm0-8h-2v-2h2v2z" class="icon-vs-blue"/><path id="iconFg" d="M7 6h2v7h-2v-7zm0-1h2v-2h-2v2z" class="icon-white"/></svg>