<svg xmlns="http://www.w3.org/2000/svg" id="Icon" width="16" height="16" viewBox="0 0 16 16"><defs><style>.cls-1{opacity:0}.cls-2{fill:#f6f6f6}.cls-3{fill:#424242}.cls-4{fill:#f0eff1}</style></defs><title>queue_16x</title><g id="canvas" class="cls-1"><rect width="16" height="16" class="cls-2"/></g><path id="outline" d="M15,1V9H12v3H9v3H1V7H4V4H7V1Z" class="cls-2"/><path id="iconBG" d="M8,2V5H5V8H2v6H8V11h3V8h3V2ZM7,13H3V9H7Zm3-3H8V8H6V6h4Zm3-3H11V5H9V3h4Z" class="cls-3"/><path id="iconFG" d="M13,3V7H11V5H9V3ZM6,8H8v2h2V6H6ZM3,13H7V9H3Z" class="cls-4"/></svg>