<svg xmlns="http://www.w3.org/2000/svg" id="Icon" width="16" height="16" viewBox="0 0 16 16"><defs><style>.cls-1,.cls-2{fill:#f6f6f6}.cls-1{opacity:0}.cls-3{fill:#424242}.cls-4{fill:#f0eff1}</style></defs><title>DatabaseAuditSpecification_16x</title><rect id="canvas" width="16" height="16" class="cls-1"/><path id="outline" d="M11,0C8.15,0,6,1.29,6,3V4.28A4.45,4.45,0,0,0,4.5,4a4.5,4.5,0,1,0,1.74,8.65L9.59,16h.83l2-2-2-2c.21,0,.41,0,.62,0,2.85,0,5-1.29,5-3V3C16,1.29,13.85,0,11,0Z" class="cls-2"/><g id="iconBG"><path d="M8,8.5a3.51,3.51,0,1,0-1.58,2.92L10,15l1-1L7.42,10.42A3.49,3.49,0,0,0,8,8.5ZM4.5,11A2.5,2.5,0,1,1,7,8.5,2.5,2.5,0,0,1,4.5,11Z" class="cls-3"/><path d="M11,1C8.79,1,7,1.9,7,3V4.76a4.49,4.49,0,0,1,1.65,5.47l.54.54A7.33,7.33,0,0,0,11,11c2.21,0,4-.9,4-2V3C15,1.9,13.21,1,11,1Zm0,3.33c-2,0-3.33-.8-3.33-1.33S9,1.67,11,1.67s3.33.8,3.33,1.33S13,4.33,11,4.33Z" class="cls-3"/></g><g id="iconFG"><circle cx="4.5" cy="8.5" r="2.5" class="cls-4"/><path d="M11,1.67c-2,0-3.33.8-3.33,1.33S9,4.33,11,4.33s3.33-.8,3.33-1.33S13,1.67,11,1.67Z" class="cls-4"/></g></svg>