<svg xmlns="http://www.w3.org/2000/svg" width="16" height="16"><style type="text/css">.icon-canvas-transparent{opacity:0;fill:#f6f6f6}.icon-vs-out{fill:#f6f6f6}.icon-vs-bg{fill:#424242}.icon-vs-fg{fill:#f0eff1}</style><path id="canvas" d="M16 16h-16v-16h16v16z" class="icon-canvas-transparent"/><path id="outline" d="M15 0v15h-14v-15h14z" class="icon-vs-out"/><path id="iconBg" d="M2 1v1h1v1h-1v1h1v1h-1v1h1v1h-1v1h1v1h-1v1h1v1h-1v1h1v1h-1v1h12v-13h-12zm11 12h-9v-11h9v11zm-2-9v2h-5v-2h5z" class="icon-vs-bg"/><path id="iconFg" d="M4 2v11h9v-11h-9zm7 3v1h-5v-2h5v1z" class="icon-vs-fg"/></svg>