<svg xmlns="http://www.w3.org/2000/svg" id="Icon" width="16" height="16" viewBox="0 0 16 16"><defs><style>.cls-1{fill:#f6f6f6}.cls-2{fill:#424242}.cls-3{fill:#f0eff1}.cls-4{fill:none}</style></defs><title>fulltext_16x</title><g id="Icon-2" data-name="Icon"><polygon id="Outline" points="1 0 1 16 5 16 12 16 16 16 16 0 1 0" class="cls-1"/><polygon points="2 15 4 15 4 14 3 14 3 2 4 2 4 1 2 1 2 15" class="cls-2"/><polygon points="13 1 13 2 14 2 14 14 13 14 13 15 15 15 15 1 13 1" class="cls-2"/><polygon points="6 11 9 11 6 14 6 15 11 15 11 14 8.01 14 11 11.05 10.95 11 11 11 11 10 6 10 6 11" class="cls-2"/><path d="M5,8h7V1H5ZM8,2H9l2,5H10L9.6,6H7.4L7,7H6Z" class="cls-2"/><polygon points="8.5 3.25 7.8 5 9.2 5 8.5 3.25" class="cls-2"/><path d="M7.4,6H9.6L10,7h1L9,2H8L6,7H7ZM8.5,3.25,9.2,5H7.8Z" class="cls-3"/></g><rect id="Canvas" width="16" height="16" class="cls-4"/></svg>