<svg xmlns="http://www.w3.org/2000/svg" width="16" height="16" viewBox="0 0 16 16"><defs><style>.a,.b{fill:#f6f6f6}.a{opacity:0}.c{fill:#424242}.d{fill:#f0eff1}</style></defs><title>Index_16x</title><rect width="16" height="16" class="a"/><polygon points="15 10 15 7 10 7 10 6 12 6 12 0 5 0 5 6 7 6 7 7 2 7 2 10 1 10 1 15 16 15 16 10 15 10" class="b"/><path d="M14,11V8H9V5h2V1H6V5H8V8H3v3H2v3H5V11H4V9H8v2H7v3h3V11H9V9h4v2H12v3h3V11ZM4,13H3V12H4Zm5,0H8V12H9ZM7,4V2h3V4Zm7,9H13V12h1Z" class="c"/><rect width="3" height="2" x="7" y="2" class="d"/><rect width="1" height="1" x="3" y="12" class="d"/><rect width="1" height="1" x="8" y="12" class="d"/><rect width="1" height="1" x="13" y="12" class="d"/></svg>