<svg xmlns="http://www.w3.org/2000/svg" id="Icon" width="16" height="16" viewBox="0 0 16 16"><defs><style>.cls-1,.cls-2{fill:#f6f6f6}.cls-1{opacity:0}.cls-3{fill:#424242}.cls-4{fill:#f0eff1}</style></defs><title>column_master_key_16x</title><rect width="16" height="16" class="cls-1"/><path id="outline" d="M11,4A4,4,0,0,0,7.56,6H1v4H2v2H7V10h.56A4,4,0,1,0,11,4Z" class="cls-2"/><path id="iconBG" d="M11,5A3,3,0,0,0,8.18,7H2V9H3v2H4V9H5v2H6V9H8.18A3,3,0,1,0,11,5Zm0,4a1,1,0,1,1,1-1A1,1,0,0,1,11,9Z" class="cls-3"/><path id="iconFG" d="M12,8a1,1,0,1,0-1,1,1,1,0,0,0,1-1" class="cls-4"/></svg>