<svg xmlns="http://www.w3.org/2000/svg" xmlns:xlink="http://www.w3.org/1999/xlink" x="0" y="0" version="1.1" viewBox="0 0 16 16" xml:space="preserve" style="enable-background:new 0 0 16 16"><style type="text/css">.st0{opacity:0}.st0,.st1{fill:#f6f6f6}.st2{fill:#424242}.st3{fill:#f0eff1}</style><g id="outline"><rect width="16" height="16" class="st0"/><path d="M16,16H1V0h15V16z" class="st1"/></g><g id="icon_x5F_bg"><path d="M2,1v14h13V1H2z M14,14H3V3h11V14z" class="st2"/><path d="M12.5,10H11L9.5,7h1L11,6.5v-2L10.5,4h-4L6,4.5v2L6.5,7h1L6,10H4.5L4,10.5v2L4.5,13h3L8,12.5v-2L7.5,10H7 l1.5-3l1.5,3H9.5L9,10.5v2L9.5,13h3l0.5-0.5v-2L12.5,10z M7,12H5v-1h2V12z M8,6H7V5h3v1H9H8z M12,12h-2v-1h2V12z" class="st2"/></g><g id="icon_x5F_fg"><path d="M5,11h2v1H5V11z M10,12h2v-1h-2V12z M10,5H7v1h3V5z M14,3v11H3V3H14z M13,10.5L12.5,10H11L9.5,7h1L11,6.5v-2 L10.5,4h-4L6,4.5v2L6.5,7h1L6,10H4.5L4,10.5v2L4.5,13h3L8,12.5v-2L7.5,10H7l1.5-3l1.5,3H9.5L9,10.5v2L9.5,13h3l0.5-0.5V10.5z" class="st3"/></g></svg>