<svg xmlns="http://www.w3.org/2000/svg" id="Icon" width="16" height="16" viewBox="0 0 16 16"><defs><style>.cls-1,.cls-2{fill:#f6f6f6}.cls-1{opacity:0}.cls-3{fill:#424242}.cls-4{fill:#f0eff1}</style></defs><title>search_property_list_16x</title><rect id="canvas" width="16" height="16" class="cls-1"/><path id="outline" d="M7.94,1A3.48,3.48,0,0,0,3.06,1H1V5.59l-1,1v.83l1,1V15H16V1Z" class="cls-2"/><g id="iconBG"><rect width="7" height="1" x="5" y="7" class="cls-3"/><rect width="7" height="1" x="5" y="9" class="cls-3"/><path d="M14,5v8H3V8.41l-1,1V14H15V2H8.65A3.46,3.46,0,0,1,9,3.5,3.46,3.46,0,0,1,8.65,5Z" class="cls-3"/><path d="M8,3.5A2.5,2.5,0,0,1,5.5,6a2.47,2.47,0,0,1-1.19-.31L2,8,1,7,3.31,4.69A2.47,2.47,0,0,1,3,3.5a2.5,2.5,0,0,1,5,0Zm-4,0A1.5,1.5,0,1,0,5.5,2,1.5,1.5,0,0,0,4,3.5Z" class="cls-3"/></g><g id="iconFG"><circle cx="5.5" cy="3.5" r="1.5" class="cls-4"/><path d="M8.65,5A3.5,3.5,0,0,1,5.5,7H12V8H5V7h.5a3.36,3.36,0,0,1-.95-.14L3,8.41V13H14V5ZM12,10H5V9h7Z" class="cls-4"/></g></svg>