<svg xmlns="http://www.w3.org/2000/svg" xmlns:xlink="http://www.w3.org/1999/xlink" width="16" height="16" x="0" y="0" version="1.1" viewBox="0 0 16 16" xml:space="preserve" style="enable-background:new 0 0 16 16"><style type="text/css">.icon-canvas-transparent{opacity:0;fill:#f6f6f6}.icon-vs-out{fill:#f6f6f6}.icon-vs-bg{fill:#424242}.icon-vs-fg{fill:#f0eff1}</style><g id="canvas"><path d="M16,16H0V0h16V16z" class="icon-canvas-transparent"/></g><g id="outline"><path d="M16,2v14H1V7.88l-1-0.8V0h8v2H16z" class="icon-vs-out"/></g><g id="iconBg"><path d="M7,1H1v5.6L4,9l3-2.4V1z M6,5.8L4,7.401L2,5.8V3h4V5.8z M8,3v3h2v2H7V7.88L5.6,9H6v2H3 V9.48l-1-0.8V15h13V3H8z M6,14H3v-2h3V14z M10,14H7v-2h3V14z M10,11H7V9h3V11z M14,14h-3v-2h3V14z M14,11h-3V9h3V11z M14,8h-3V6h3 V8z" class="icon-vs-bg"/></g><g id="iconFg"><path d="M6,5.8L4,7.401L2,5.8V3h4V5.8z M4,10.28l-1-0.8V11h3V9H5.6L4,10.28z M7,14h3v-2H7V14z M3,14h3v-2H3V14z M7,11h3V9H7V11z M11,6v2h3V6H11z M8,7.081l-1,0.8V8h3V6H8V7.081z M11,11h3V9h-3V11z M11,14h3v-2h-3V14z" class="icon-vs-fg"/></g></svg>