<svg xmlns="http://www.w3.org/2000/svg" width="16" height="16" viewBox="0 0 16 16"><defs><style>.cls-1,.cls-2{fill:#f6f6f6}.cls-1{opacity:0}.cls-3{fill:#424242}</style></defs><title>sequence_16x</title><g id="outline"><rect width="16" height="16" class="cls-1"/><path d="M3,16a2,2,0,0,1-2-2V2A2,2,0,0,1,3,0h8.06L15,3.56V14a2,2,0,0,1-2,2Z" class="cls-2"/></g><g id="icon_bg"><path d="M10.64,1H3A1,1,0,0,0,2,2V14a1,1,0,0,0,1,1H13a1,1,0,0,0,1-1V4ZM13,14H3V2h7V5h3Z" class="cls-3"/><rect width="2" height="2" x="4" y="7" class="cls-3"/><rect width="2" height="2" x="4" y="3" class="cls-3"/><rect width="2" height="2" x="7" y="11" class="cls-3"/><rect width="2" height="2" x="4" y="11" class="cls-3"/><rect width="2" height="2" x="10" y="11" class="cls-3"/><rect width="2" height="2" x="7" y="7" class="cls-3"/></g><g id="icon_fg"><path d="M10,5V2H3V14H13V5ZM6,13H4V11H6ZM6,9H4V7H6ZM6,5H4V3H6Zm3,8H7V11H9ZM9,9H7V7H9Zm3,4H10V11h2Z" class="cls-2"/></g></svg>