<svg xmlns="http://www.w3.org/2000/svg" id="Icon" width="16" height="16" viewBox="0 0 16 16"><defs><style>.cls-1,.cls-2{fill:#f6f6f6}.cls-1{opacity:0}.cls-3{fill:#424242}.cls-4{fill:#f0eff1}</style></defs><title>credential_16x</title><rect width="16" height="16" class="cls-1"/><path id="outline" d="M15,13H8v3H1V10A3.47,3.47,0,0,1,4.5,7,3.65,3.65,0,0,1,6,7.33V6H8A3.44,3.44,0,0,1,7,3.5a3.5,3.5,0,0,1,7,0A3.44,3.44,0,0,1,13,6h2Z" class="cls-2"/><g id="iconBG"><path d="M3,10H2A2.37,2.37,0,0,1,4.5,8,2.36,2.36,0,0,1,7,10H6A1.47,1.47,0,0,0,4.5,9,1.45,1.45,0,0,0,3,10Z" class="cls-3"/><path d="M2,11v4H7V11Zm3,3H4V12H5Z" class="cls-3"/><circle cx="10.5" cy="3.5" r="2.5" class="cls-3"/><path d="M12,7,10.5,9,9,7H7V8a3.34,3.34,0,0,1,1,2v2h6V7Z" class="cls-3"/></g><path id="iconFG" d="M5,14H4V12H5Z" class="cls-4"/></svg>