<svg xmlns="http://www.w3.org/2000/svg" id="Icon" width="16" height="16" viewBox="0 0 16 16"><defs><style>.cls-1{fill:#f6f6f6}.cls-2{fill:#424242}.cls-3{fill:#e51400}</style></defs><title>login_disabled_16x</title><path d="M16,9.59l-2-2-2,2V7H8.62A4,4,0,1,0,3.38,7H0v9H12V14.41L13.59,16h.83L16,14.41v-.82L14.41,12,16,10.42Z" class="cls-1"/><path d="M10.41,8H11v.59ZM7.59,14l2-2-2-2,2-2H8L6,11,4,8H1v7H8.59ZM6,7A3,3,0,1,0,3,4,3,3,0,0,0,6,7Z" class="cls-2"/><path d="M13,12l2,2-1,1-2-2-2,2L9,14l2-2L9,10l1-1,2,2,2-2,1,1Z" class="cls-3"/></svg>