<svg xmlns="http://www.w3.org/2000/svg" id="Icon" width="16" height="16" viewBox="0 0 16 16"><defs><style>.cls-1{opacity:0}.cls-2{fill:#f6f6f6}.cls-3{fill:#424242}.cls-4{fill:#f0eff1}</style></defs><title>cryptographicprovider_enabled_16x</title><g id="canvas" class="cls-1"><rect width="16" height="16" class="cls-2"/></g><path id="outline" d="M12,6V5h1V2H6.71A3.57,3.57,0,0,0,3.5,0,3.49,3.49,0,0,0,1.06,6H0v6H1v1H5V12h6v1h4V12h1V6ZM6.71,5H7V6H6A3.48,3.48,0,0,0,6.71,5Z" class="cls-2"/><g id="iconBG"><path d="M1,7v4H2v1H4V11h8v1h2V11h1V7ZM3,9H2V8H3Z" class="cls-3"/><path d="M1,3.5A2.5,2.5,0,0,0,3.5,6,2.56,2.56,0,0,0,6,4H8V6H9V4h1V6h1V4h1V3H6A2.56,2.56,0,0,0,3.5,1,2.5,2.5,0,0,0,1,3.5Zm1,0A1.5,1.5,0,1,1,3.5,5,1.5,1.5,0,0,1,2,3.5Z" class="cls-3"/></g><g id="iconFG"><rect id="iconFG-2" width="1" height="1" x="2" y="8" class="cls-4" data-name="iconFG"/><circle id="iconFG-3" cx="3.5" cy="3.5" r="1.5" class="cls-4" data-name="iconFG"/></g></svg>