<svg xmlns="http://www.w3.org/2000/svg" id="Icon" width="16" height="16" viewBox="0 0 16 16"><defs><style>.cls-1,.cls-2{fill:#f6f6f6}.cls-1{opacity:0}.cls-3{fill:#424242}.cls-4{fill:#f0eff1}</style></defs><title>linked_server_16x</title><rect id="canvas" width="16" height="16" class="cls-1"/><path id="outline" d="M3,0V10a2.78,2.78,0,0,0-3,3H0a2.68,2.68,0,0,0,2.79,3H13V0Z" class="cls-2"/><g id="iconBG"><path d="M4,1v9H7.08a2.6,2.6,0,0,1,2.73,1.82.69.69,0,0,1,.07.21A3.94,3.94,0,0,1,10,13a1.21,1.21,0,0,1,0,.41A2.92,2.92,0,0,1,9.35,15H12V1Zm6,5H6V5h4Zm0-2H6V3h4Z" class="cls-3"/><path d="M7.15,11H6.48L7,12c.38,0,1,0,1,1,0,.38,0,1-.78,1H5.58a3.75,3.75,0,0,0-.83-.94c-.29-.19-.75.29-.46.93a5.76,5.76,0,0,1,.53,1H7a1.8,1.8,0,0,0,2-2C9,11.5,8.27,11,7.15,11Z" class="cls-3"/><path d="M2.9,15h.64L3,14c-.37,0-1,0-1-1,0-.37,0-1,.78-1H4.46a3.75,3.75,0,0,0,.83.94c.29.19.75-.29.46-.93a5.76,5.76,0,0,1-.53-1H3a1.8,1.8,0,0,0-2,2C1,14.5,1.77,15,2.9,15Z" class="cls-3"/></g><g id="iconFG"><rect width="4" height="1" x="6" y="5" class="cls-4"/><rect width="4" height="1" x="6" y="3" class="cls-4"/></g></svg>