<svg xmlns="http://www.w3.org/2000/svg" id="Icon" width="16" height="16" viewBox="0 0 16 16"><defs><style>.cls-1{opacity:0}.cls-2{fill:#f6f6f6}.cls-3{fill:#424242}.cls-4{fill:#f0eff1}.cls-5{fill:#e51400}</style></defs><title>Trigger_disabled_16x</title><g id="canvas" class="cls-1"><rect width="16" height="16" class="cls-2"/></g><polygon id="outline" points="16 1 0 1 0 15 8.59 15 9.5 15.91 10.41 15 12.59 15 13.5 15.91 14.41 15 16 15 16 1" class="cls-2"/><g id="iconBG"><path d="M14,11.4v.17l1,1V10.41ZM2,5H14V7.59l1,1V2H1V14H4.38l.5-1H2Z" class="cls-3"/><polygon points="8.3 10.7 7.08 9.51 7.59 9 7 9 10 6 7 6 5 10 7.5 10 6 13 8.3 10.7" class="cls-3"/></g><g id="iconFG"><polygon points="6.38 5 2 5 2 13 4.88 13 5.88 11 4 11 4 9.76 6.38 5" class="cls-4"/><polygon points="13.91 11.48 14 11.57 14 11.4 13.91 11.48" class="cls-4"/><polygon points="10.41 8 11 8 11 8.59 11.5 9.09 13.5 7.09 14 7.59 14 5 11 5 11 6.41 9.91 7.5 10.41 8" class="cls-4"/></g><path id="colorAction" d="M12.5,11.47l2,2-1,1-2-2-2,2-1-1,2-2-2-2,1-1,2,2,2-2,1,1Z" class="cls-5"/></svg>