<svg xmlns="http://www.w3.org/2000/svg" id="Icon" width="16" height="16" viewBox="0 0 16 16"><defs><style>.cls-1,.cls-2{fill:#f6f6f6}.cls-1{opacity:0}.cls-3{fill:#424242}.cls-4{fill:#f0eff1}</style></defs><title>Trigger_16x</title><rect id="canvas" width="16" height="16" class="cls-1"/><rect id="outline" width="16" height="14" y="1" class="cls-2"/><g id="iconBG"><polygon points="1 2 1 14 4.38 14 4.88 13 2 13 2 5 14 5 14 13 7.41 13 6.41 14 15 14 15 2 1 2" class="cls-3"/><polygon points="10 9 7 9 10 6 7 6 5 10 7.5 10 6 13 10 9" class="cls-3"/></g><g id="iconFG"><polygon points="6.38 5 2 5 2 13 4.88 13 5.88 11 4 11 4 9.76 6.38 5" class="cls-4"/><polygon points="11 5 11 6.41 9.41 8 11 8 11 9.41 7.41 13 14 13 14 5 11 5" class="cls-4"/></g></svg>