<svg xmlns="http://www.w3.org/2000/svg" width="16" height="16"><style type="text/css">.icon-canvas-transparent{opacity:0;fill:#f6f6f6}.icon-vs-out{fill:#f6f6f6}.icon-vs-bg{fill:#424242}.icon-vs-fg{fill:#f0eff1}</style><path id="canvas" d="M16 16h-16v-16h16v16z" class="icon-canvas-transparent"/><path id="outline" d="M16 15h-15v-14h15v14z" class="icon-vs-out"/><path id="iconBg" d="M2 2v12h13v-12h-13zm4 11h-3v-2h3v2zm0-3h-3v-2h3v2zm0-3h-3v-2h3v2zm4 6h-3v-2h3v2zm0-3h-3v-2h3v2zm0-3h-3v-2h3v2zm4 6h-3v-2h3v2zm0-3h-3v-2h3v2zm0-3h-3v-2h3v2z" class="icon-vs-bg"/><path id="iconFg" d="M14 7h-3v-2h3v2zm0 1h-3v2h3v-2zm-4-3h-3v2h3v-2zm0 3h-3v2h3v-2zm-4-3h-3v2h3v-2zm0 3h-3v2h3v-2zm8 3h-3v2h3v-2zm-4 0h-3v2h3v-2zm-4 0h-3v2h3v-2z" class="icon-vs-fg"/></svg>