<svg xmlns="http://www.w3.org/2000/svg" xmlns:xlink="http://www.w3.org/1999/xlink" id="Layer_1" data-name="Layer 1" viewBox="0 0 16 16"><defs><style>.cls-1{fill:none}.cls-10{fill:#fff}</style><clipPath id="clip-path"><rect width="15.81" height="13.48" x="81.22" y="32.62" class="cls-1"/></clipPath><clipPath id="clip-path-2"><rect width="15.81" height="13.48" x="-712.01" y="400.9" class="cls-1"/></clipPath><clipPath id="clip-path-3"><rect width="15.81" height="13.48" x="-711.01" y="400.9" class="cls-1"/></clipPath><clipPath id="clip-path-4"><rect width="10.73" height=".43" x="-708.37" y="407.17" class="cls-1"/></clipPath><clipPath id="clip-path-5"><rect width="10.14" height=".43" x="-708.07" y="405.93" class="cls-1"/></clipPath><clipPath id="clip-path-6"><rect width="9.31" height=".43" x="-707.66" y="404.69" class="cls-1"/></clipPath><clipPath id="clip-path-7"><rect width="8.5" height=".43" x="-707.25" y="403.46" class="cls-1"/></clipPath><clipPath id="clip-path-8"><rect width="7.65" height=".43" x="-706.83" y="402.22" class="cls-1"/></clipPath></defs><title>clear_results_inverse</title><path d="M8.71,13.84H12v1H3.54L.39,11.68a1.29,1.29,0,0,1-.29-.44,1.42,1.42,0,0,1,0-1.05,1.34,1.34,0,0,1,.3-.45L9.75.38,16,6.59Zm-1.42,0,1-1L3.5,8l-2.39,2.4a.4.4,0,0,0,0,.55L4,13.84Zm2.46-12L4.2,7.34,9,12.13l5.54-5.54Z" class="cls-10"/></svg>