<svg xmlns="http://www.w3.org/2000/svg" xmlns:xlink="http://www.w3.org/1999/xlink" id="Layer_1" x="0" y="0" version="1.1" viewBox="0 0 16 16" xml:space="preserve" style="enable-background:new 0 0 16 16"><style type="text/css">.st0{fill:#fff}</style><title>SchemaCompare</title><path d="M4.2,11l-0.7,0.7L4.8,13H3.5C2.7,13,2,12.3,2,11.5c0,0,0,0,0,0V9H1v2.5c0,0.3,0.1,0.7,0.2,1	c0.3,0.6,0.7,1.1,1.3,1.3c0.3,0.1,0.6,0.2,1,0.2h1.3l-1.3,1.3L4.2,16l2.5-2.5L4.2,11z" class="st0"/><path d="M12,6V0H4v10h4v6h8V6H12z M5,9V1h6v5H8v3H5z M15,15H9V7h6V15z" class="st0"/></svg>