<svg xmlns="http://www.w3.org/2000/svg" viewBox="0 0 16 16"><style>.icon-canvas-transparent{opacity:0;fill:#2d2d30}.icon-vs-out{fill:#2d2d30}.icon-vs-bg{fill:#c5c5c5}.icon-vs-fg{fill:#2b282e}</style><path id="canvas" d="M16 16H0V0h16v16z" class="icon-canvas-transparent"/><path id="outline" d="M16 16H0V0h16v16z" class="icon-vs-out" style="display:none"/><path id="iconBg" d="M12 7H9V4l1-1v2l2-2 1 1-2 2h2l-1 1zm-2 1H9v4H4V8h4V6H3v7h7V8zm5-7v14H1V1h14zm-1 1H2v12h12V2z" class="icon-vs-bg"/><path id="iconFg" d="M12.414 8L14 6.414V14H2V2h7.586L8 3.586V6H3v7h7V8h2.414zM4 8v4h5V8H4z" class="icon-vs-fg" style="display:none"/></svg>