<svg xmlns="http://www.w3.org/2000/svg" id="Icon" width="16" height="16" viewBox="0 0 16 16"><defs><style>.cls-1{opacity:0}.cls-2{fill:#f6f6f6}.cls-3{fill:#424242}.cls-4{fill:#f0eff1}</style></defs><title>centralmanagement_server_16x</title><g id="canvas" class="cls-1"><rect width="16" height="16" class="cls-2"/></g><path id="outline" d="M16,0H7V1H3V5H0V16H8V13h8ZM6,4H7V5H6Z" class="cls-2"/><g id="iconBG"><path d="M8,1V12h7V1Zm6,10H13V10h1Zm0-6H9V4h5Zm0-2H9V2h5Z" class="cls-3"/><path d="M1,6v9H7V6Zm5,8H5V13H6Zm0-4H2V9H6ZM6,8H2V7H6Z" class="cls-3"/><rect width="1" height="1" x="6" y="2" class="cls-3"/><rect width="1" height="1" x="4" y="4" class="cls-3"/><rect width="1" height="1" x="4" y="2" class="cls-3"/></g><g id="iconFG"><path d="M14,3H9V2h5Zm0,1H9V5h5Zm0,6H13v1h1Z" class="cls-4"/><path d="M6,8H2V7H6ZM6,9H2v1H6Zm0,4H5v1H6Z" class="cls-4"/></g></svg>