<svg xmlns="http://www.w3.org/2000/svg" xmlns:xlink="http://www.w3.org/1999/xlink" id="a310ce98-1fce-406a-8038-d49027539a51" width="18" height="18" data-name="icon" viewBox="0 0 18 18"><defs><linearGradient id="fc16d7bf-3a7a-4f41-b06a-4d4a2af338fc" x1="2.587" x2="15.413" y1="10.161" y2="10.161" gradientUnits="userSpaceOnUse"><stop offset="0" stop-color="#005ba1"/><stop offset=".068" stop-color="#0060a9"/><stop offset=".356" stop-color="#0071c8"/><stop offset=".517" stop-color="#0078d4"/><stop offset=".642" stop-color="#0074cd"/><stop offset=".82" stop-color="#006abb"/><stop offset="1" stop-color="#005ba1"/></linearGradient></defs><title>ads_sql_extensions</title><path fill="url(#fc16d7bf-3a7a-4f41-b06a-4d4a2af338fc)" d="M9,5.14482c-3.54144,0-6.41263-1.03974-6.41263-2.32241V15.17725c0,1.272,2.82384,2.30527,6.3247,2.32234v.00006h.01244L9,17.5v-.00035c3.54144,0,6.41263-1.03939,6.41263-2.3224V2.82241C15.41263,4.10508,12.54144,5.14482,9,5.14482Z"/><path fill="#e8e8e8" d="M15.41263,2.82241c0,1.28267-2.87119,2.32241-6.41263,2.32241S2.58737,4.10508,2.58737,2.82241,5.45856.5,9,.5s6.41263,1.03975,6.41263,2.32241"/><path fill="#50e6ff" d="M13.91551,2.63421c0,.81591-2.20079,1.47654-4.91552,1.47654S4.08414,3.45012,4.08414,2.63421c0-.81557,2.20113-1.47653,4.91585-1.47653s4.91552.661,4.91552,1.47653"/><path fill="#198ab3" d="M9,2.97457a11.88375,11.88375,0,0,0-3.894.56051A11.48281,11.48281,0,0,0,9,4.11074,11.4802,11.4802,0,0,0,12.89407,3.535,11.88748,11.88748,0,0,0,9,2.97457Z"/><g><rect width="2.5" height="2.5" x="9.5" y="11.503" fill="#e8e8e8"/><rect width="2.5" height="2.5" x="6" y="11.503" fill="#e8e8e8"/><rect width="2.5" height="2.5" x="6" y="8.003" fill="#e8e8e8"/><rect width="2.5" height="2.5" x="9.928" y="7.485" fill="#e8e8e8" transform="translate(9.45057 -5.34544) rotate(45)"/></g></svg>