<svg xmlns="http://www.w3.org/2000/svg" width="65" height="65" fill="none" viewBox="0 0 65 65"><path fill="#1F1D21" d="M51.4626 50.948L34.9701 42.2208L12.7969 55.7359L28.8007 64.7662L51.4626 50.948Z" opacity=".2"/><path fill="#137AD1" d="M28.2509 23.3723L28.6174 63.0087L13.1634 54.4026L12.7969 14.7662L28.2509 23.3723Z"/><path fill="#1D4A79" d="M28.251 23.3723L51.5848 9.37229V49.0693L28.6175 63.0087L28.251 23.3723Z"/><path fill="#2195DC" d="M12.7969 14.7662L35.7642 0.76622L51.5848 9.37228L28.2509 23.3723L12.7969 14.7662Z"/><path fill="#CDCDD0" d="M22.7534 26.1602V27.6147L15.9121 23.7965V22.342L22.7534 26.1602Z"/><path fill="#EBEBEB" d="M24.5248 27.1905V28.5844L23.3643 27.9177V26.5238L24.5248 27.1905Z"/><path fill="#CDCDD0" d="M22.8145 29.0693V30.4632L15.9731 26.645V25.2511L22.8145 29.0693Z"/><path fill="#EBEBEB" d="M24.5248 30.039L24.5859 31.4935L23.4253 30.8268L23.3643 29.3723L24.5248 30.039Z"/></svg>